<svg width="1211" height="358" viewBox="0 0 1211 358" fill="none" xmlns="http://www.w3.org/2000/svg">
<path d="M1128.4 0.371704L1087.43 41.9866L1045.8 82.9514L1087.43 124.566L1128.4 82.9514L1170.03 124.566L1211 82.9514L1128.4 0.371704Z" fill="#001C54"/>
<path d="M608.102 270.219H695.903V357.35H753.786V124.566H695.903V211.698H608.102V124.566H550.219V357.35H608.102V270.219Z" fill="#001C54"/>
<path d="M203.568 124.566H0V182.437H203.568V124.566Z" fill="#001C54"/>
<path d="M102.109 212.348H0V270.219H102.109V212.348Z" fill="#001C54"/>
<path d="M203.568 300.129H0V358H203.568V300.129Z" fill="#001C54"/>
<path d="M1045.8 240.958C1045.8 176.585 993.774 124.566 929.387 124.566C865 124.566 812.97 176.585 812.97 240.958C812.97 305.331 865 357.35 929.387 357.35C993.124 358 1045.8 305.331 1045.8 240.958ZM870.203 240.958C870.203 208.446 896.218 182.437 928.737 182.437C961.256 182.437 987.271 208.446 987.271 240.958C987.271 273.47 961.256 299.479 928.737 299.479C896.869 299.479 870.203 273.47 870.203 240.958Z" fill="#001C54"/>
<path d="M378.518 358C433.149 358 478.676 320.937 491.033 270.218H429.247C418.841 287.775 399.98 300.129 378.518 300.129C345.999 300.129 319.984 274.12 319.984 241.608C319.984 209.096 345.999 183.087 378.518 183.087C400.631 183.087 419.491 194.791 429.247 212.998H491.033C478.025 162.93 432.499 125.216 378.518 125.216C314.131 125.216 262.1 177.235 262.1 241.608C262.1 305.331 314.131 358 378.518 358Z" fill="#001C54"/>
</svg>
