<svg width="1211" height="556" viewBox="0 0 1211 556" fill="none" xmlns="http://www.w3.org/2000/svg">
<path d="M1128.4 0L1087.43 41.615L1045.8 82.5797L1087.43 124.195L1128.4 82.5797L1170.03 124.195L1211 82.5797L1128.4 0Z" fill="#001C54"/>
<path d="M608.102 269.197H695.903V356.978H753.786V123.544H695.903V211.326H608.102V123.544H550.219V356.978H608.102V269.197Z" fill="#001C54"/>
<path d="M203.568 124.195H0V182.065H203.568V124.195Z" fill="#001C54"/>
<path d="M102.109 211.976H0V269.847H102.109V211.976Z" fill="#001C54"/>
<path d="M203.568 299.108H0V356.978H203.568V299.108Z" fill="#001C54"/>
<path d="M1045.8 240.586C1045.8 176.213 993.774 124.195 929.387 124.195C865 124.195 812.97 176.213 812.97 240.586C812.97 304.96 865 356.978 929.387 356.978C993.124 356.978 1045.8 304.96 1045.8 240.586ZM870.203 240.586C870.203 208.075 896.218 182.065 928.737 182.065C961.256 182.065 987.271 208.075 987.271 240.586C987.271 273.098 961.256 299.107 928.737 299.107C896.869 299.107 870.203 273.098 870.203 240.586Z" fill="#001C54"/>
<path d="M378.518 356.978C433.149 356.978 478.676 319.915 491.033 269.197H429.247C418.841 286.753 399.98 299.107 378.518 299.107C345.999 299.107 319.984 273.098 319.984 240.586C319.984 208.075 345.999 182.065 378.518 182.065C400.631 182.065 419.491 193.77 429.247 211.976H491.033C478.025 161.908 432.499 124.195 378.518 124.195C314.131 124.195 262.1 176.213 262.1 240.586C262.1 304.96 314.131 356.978 378.518 356.978Z" fill="#001C54"/>
<path d="M37.0714 487.025C35.7707 485.074 33.8195 483.774 31.218 482.473C29.2669 481.173 26.6654 480.523 24.0639 480.523H0V540.344H5.85338V518.236H25.3647C27.9662 518.236 30.5677 517.586 32.5188 516.936C34.4699 516.286 36.4211 514.335 37.7218 513.035C39.0226 511.734 40.3233 509.133 40.9737 507.182C41.6241 505.232 42.2744 502.631 42.2744 500.03C42.2744 497.429 41.6241 495.478 40.9737 493.528C40.3233 490.276 39.0226 488.326 37.0714 487.025ZM35.7707 504.581C35.1203 506.532 34.4699 507.833 33.1692 509.133C31.8684 510.434 31.218 511.084 29.2669 512.384C27.9662 513.035 26.015 513.685 24.7143 513.685H5.85338V486.375H24.7143C26.015 486.375 27.9662 487.025 29.2669 487.675C30.5677 488.326 31.8684 489.626 33.1692 490.276C34.4699 491.577 35.1203 492.877 35.7707 494.828C36.4211 496.779 36.4211 498.079 36.4211 500.03C36.4211 501.33 36.4211 503.281 35.7707 504.581Z" fill="#001C54"/>
<path d="M111.215 490.276C108.613 487.675 106.012 485.074 102.11 483.124C98.8577 481.173 94.9554 480.523 90.4028 480.523C86.5005 480.523 82.5983 481.173 79.3464 483.124C76.0945 485.074 72.8427 487.025 70.2412 489.626C67.6397 492.227 65.6885 495.478 64.3878 499.38C63.087 503.281 62.4366 506.532 62.4366 511.084C62.4366 514.985 63.087 518.887 64.3878 522.138C65.6885 526.039 67.6397 529.29 70.2412 531.891C72.8427 534.492 75.4442 537.093 79.3464 538.394C82.5983 540.344 86.5006 540.995 91.0532 540.995C94.9554 540.995 98.8577 540.344 102.11 538.394C105.361 536.443 108.613 534.492 111.215 531.891C113.816 529.29 115.767 526.039 117.068 522.138C118.369 518.236 119.019 514.985 119.019 510.434C119.019 506.532 118.369 503.281 117.068 499.38C115.767 496.128 113.816 492.877 111.215 490.276ZM111.215 519.537C109.914 522.788 108.613 525.389 106.662 527.34C104.711 529.941 102.11 531.891 99.5081 533.192C96.9066 534.492 93.6547 535.142 90.4028 535.142C87.1509 535.142 83.899 534.492 81.2975 533.192C78.696 531.891 76.0945 529.941 74.1434 527.34C72.1923 524.739 70.8915 522.138 69.5908 519.537C68.29 516.286 68.29 513.685 68.29 510.434C68.29 507.182 68.9404 504.581 69.5908 501.33C70.8915 498.079 72.1923 495.478 74.1434 493.528C76.0945 490.927 78.696 488.976 81.2975 487.675C83.899 486.375 87.1509 485.725 90.4028 485.725C93.6547 485.725 96.9066 486.375 99.5081 487.675C102.11 488.976 104.711 490.927 106.662 492.877C108.613 494.828 109.914 498.079 111.215 500.68C112.516 503.931 113.166 506.532 113.166 509.783C113.166 513.685 112.516 516.936 111.215 519.537Z" fill="#001C54"/>
<path d="M135.928 486.375H157.39V540.344H163.244V486.375H184.056V480.523H135.928V486.375Z" fill="#001C54"/>
<path d="M213.974 512.384H243.241V507.182H213.974V485.725H247.143V480.523H208.12V540.344H243.891C241.94 541.645 239.989 543.596 239.338 544.896C238.038 546.196 238.038 547.497 238.038 548.797C238.038 550.098 238.688 551.398 239.338 552.699C240.639 553.999 241.94 554.649 243.891 555.3L245.192 552.049C242.59 551.398 240.639 550.748 240.639 548.147C240.639 546.847 241.29 545.546 241.94 544.246C243.241 542.945 244.541 541.645 247.143 540.344V535.142H212.673V512.384H213.974Z" fill="#001C54"/>
<path d="M302.424 515.635H315.431V525.389C312.83 528.64 309.578 531.241 306.326 533.192C303.074 534.492 299.822 535.792 296.57 535.792C293.319 535.792 290.717 535.142 287.465 533.842C284.864 532.541 282.262 530.591 280.311 528.64C278.36 526.689 276.409 523.438 275.758 520.837C274.458 517.586 273.807 514.335 273.807 511.084C273.807 507.832 274.458 504.581 275.108 501.98C276.409 498.729 277.71 496.128 279.661 494.178C281.612 491.577 283.563 490.276 286.164 488.325C288.766 487.025 292.018 486.375 295.27 486.375C299.172 486.375 303.074 487.025 305.676 488.976C308.928 490.926 311.529 493.527 313.48 497.429L318.033 494.178C317.382 492.227 316.082 490.276 314.781 488.976C313.48 487.675 311.529 485.725 310.228 485.074C308.277 483.774 306.326 483.124 303.725 482.473C301.123 481.823 298.522 481.823 295.92 481.823C292.018 481.823 288.116 482.473 284.864 484.424C281.612 486.375 278.36 488.325 276.409 490.926C273.807 493.527 271.856 496.778 270.555 500.68C269.255 504.581 268.604 507.832 268.604 512.384C268.604 516.286 269.255 520.187 270.555 523.438C271.856 527.339 273.807 530.591 276.409 533.192C279.01 535.792 281.612 538.393 285.514 540.344C289.416 542.295 292.668 542.945 296.57 542.945C303.725 542.945 310.228 539.694 315.431 533.842V542.295H320.634V513.034H302.424V515.635Z" fill="#001C54"/>
<path d="M366.162 480.523L341.447 540.344H347.951L355.756 521.488H382.421L390.226 540.344H396.729L370.714 480.523H366.162ZM356.406 516.936L368.763 487.675L380.47 516.936H356.406Z" fill="#001C54"/>
<path d="M487.782 513.685C485.831 512.384 483.88 511.084 481.279 510.434C478.677 509.783 476.076 509.133 472.824 508.483C470.222 507.833 467.621 507.182 465.67 506.532C463.719 505.882 461.767 505.232 460.467 504.581C459.166 503.931 457.865 502.631 457.215 501.33C456.564 500.03 456.564 498.729 456.564 496.779C456.564 493.528 457.865 490.927 460.467 488.976C463.068 487.025 466.97 485.725 472.173 485.725C476.076 485.725 478.677 486.375 481.929 487.675C484.531 488.976 487.132 490.276 488.433 492.227L491.034 487.675C488.433 485.725 485.831 483.774 482.579 482.473C479.328 481.173 476.076 480.523 472.173 480.523C468.922 480.523 466.32 481.173 463.719 481.823C461.117 482.474 459.166 483.774 457.215 485.074C455.264 486.375 453.963 488.326 452.662 490.276C451.361 492.227 451.361 494.828 451.361 497.429C451.361 500.03 452.012 501.981 452.662 503.281C453.313 505.232 454.613 506.532 456.564 507.833C457.865 509.133 460.467 509.783 462.418 511.084C464.369 512.384 467.621 512.384 470.873 513.035C474.125 513.685 476.726 514.335 478.677 514.985C480.628 515.635 482.579 516.286 484.531 517.586C485.831 518.236 487.132 519.537 487.782 520.837C488.433 522.138 489.083 523.438 489.083 525.389C489.083 528.64 487.782 531.241 485.181 533.192C482.579 535.142 478.677 535.793 474.125 535.793C471.523 535.793 469.572 535.793 467.621 535.142C465.67 534.492 463.719 533.842 461.767 533.192C459.816 532.542 458.516 531.241 456.564 530.591C455.264 529.29 453.963 528.64 452.662 527.34L449.41 531.891C455.914 537.743 464.369 540.344 473.474 540.344C476.726 540.344 479.328 540.344 481.929 539.694C484.531 539.044 487.132 537.743 488.433 536.443C490.384 535.142 491.685 533.192 492.986 531.241C494.286 529.29 494.286 526.689 494.286 524.088C494.286 521.488 493.636 518.887 492.986 517.586C490.384 516.286 489.083 514.985 487.782 513.685Z" fill="#001C54"/>
<path d="M555.422 487.025C554.121 485.074 552.17 483.774 549.568 482.473C547.617 481.173 545.016 480.523 542.414 480.523H517.7V540.344H523.553V518.236H543.064C545.666 518.236 548.267 517.586 550.218 516.936C552.17 516.286 554.121 514.335 555.422 513.035C556.722 511.084 558.023 509.133 558.673 507.182C559.324 505.232 559.974 502.631 559.974 500.03C559.974 497.429 559.324 495.478 558.673 493.528C558.023 490.276 557.373 488.326 555.422 487.025ZM554.121 504.581C553.47 506.532 552.82 507.833 551.519 509.133C550.219 510.434 549.568 511.084 547.617 512.384C546.316 513.035 544.365 513.685 543.064 513.685H524.203V486.375H543.064C544.365 486.375 546.316 487.025 547.617 487.675C548.918 488.326 550.219 489.626 551.519 490.276C552.82 491.577 553.47 492.877 554.121 494.828C554.771 496.779 554.771 498.079 554.771 500.03C554.771 501.33 554.121 503.281 554.121 504.581Z" fill="#001C54"/>
<path d="M619.808 514.985C621.759 513.685 623.06 512.384 623.711 511.084C625.011 509.783 625.662 507.833 626.312 505.882C626.962 503.931 626.962 501.981 626.962 499.38C626.962 496.779 626.312 494.828 625.662 492.877C625.011 490.927 623.711 488.326 621.759 487.025C620.459 485.074 618.508 483.774 615.906 482.473C613.955 481.173 611.353 480.523 608.752 480.523H585.338V540.344H591.192V518.236H608.752L623.06 540.344H629.564L615.256 517.586C616.556 516.936 618.508 516.286 619.808 514.985ZM591.192 513.035V485.725H610.053C611.353 485.725 613.305 486.375 614.605 487.025C615.906 487.675 617.207 488.976 618.508 490.276C619.808 491.577 620.459 492.877 621.109 494.828C621.759 496.779 621.759 498.079 621.759 500.03C621.759 501.981 621.759 503.281 621.109 505.232C620.459 506.532 619.808 508.483 618.508 509.783C617.207 511.084 616.556 512.384 614.605 513.035C613.305 513.685 611.353 514.335 610.053 514.335H591.192V513.035Z" fill="#001C54"/>
<path d="M650.375 486.375H690.048L649.725 535.793V540.344H697.203V535.142H656.879L697.203 485.725V480.523H650.375V486.375Z" fill="#001C54"/>
<path d="M727.771 512.384H757.038V507.833H727.771V486.375H761.59V480.523H721.917V540.344H762.241V535.142H727.771V512.384Z" fill="#001C54"/>
<path d="M829.881 489.626C827.279 487.025 824.678 485.074 820.776 483.124C817.524 481.823 812.971 480.523 808.419 480.523H788.257V540.344H808.419C812.971 540.344 816.873 539.694 820.125 538.394C823.377 537.093 826.629 535.142 829.231 532.542C831.832 529.941 833.783 526.689 835.084 523.438C836.385 519.537 837.035 515.635 837.035 511.084C837.035 507.182 836.385 503.281 835.084 499.38C833.783 495.478 831.832 492.227 829.881 489.626ZM829.231 520.187C827.93 523.438 826.629 526.039 824.678 527.99C822.727 529.941 820.125 531.891 817.524 533.192C814.922 534.492 811.67 535.142 807.768 535.142H793.46V485.725H807.768C811.67 485.725 814.922 486.375 817.524 487.675C820.125 488.976 822.727 490.276 824.678 492.877C826.629 494.828 827.93 497.429 829.231 500.68C830.531 503.931 830.531 507.182 830.531 510.434C831.182 514.335 830.531 517.586 829.231 520.187Z" fill="#001C54"/>
<path d="M879.308 480.523L854.594 540.344H861.097L868.902 521.488H895.567L903.372 540.344H909.875L885.161 480.523H879.308ZM869.552 516.936L881.909 487.675L893.616 516.936H869.552Z" fill="#001C54"/>
<path d="M955.403 463.617H950.2V472.07H955.403V463.617Z" fill="#001C54"/>
<path d="M928.087 486.375H967.76L927.437 535.793V540.344H974.914V535.142H934.591L974.914 485.725V480.523H928.087V486.375Z" fill="#001C54"/>
<path d="M1019.79 513.035L1000.28 480.523H993.773L1016.54 518.236V540.344H1022.39V518.236L1045.8 480.523H1039.3L1019.79 513.035Z" fill="#001C54"/>
</svg>
