<svg viewBox="0 0 16 17" fill="none" xmlns="http://www.w3.org/2000/svg">
<path fill-rule="evenodd" clip-rule="evenodd" d="M7.15125 0.766195C7.38837 0.565171 7.68914 0.454834 8 0.454834C8.31086 0.454834 8.61163 0.565171 8.84875 0.766195L15.4112 6.33382C15.5566 6.45702 15.6733 6.61037 15.7534 6.78323C15.8335 6.95609 15.875 7.14431 15.875 7.33482V15.5624C15.875 15.9105 15.7367 16.2444 15.4906 16.4905C15.2444 16.7367 14.9106 16.8749 14.5625 16.8749H9.53125C9.3572 16.8749 9.19028 16.8058 9.06721 16.6827C8.94414 16.5597 8.875 16.3927 8.875 16.2187V10.7499H7.125V16.2187C7.125 16.3927 7.05586 16.5597 6.93279 16.6827C6.80972 16.8058 6.6428 16.8749 6.46875 16.8749H1.4375C1.0894 16.8749 0.755564 16.7367 0.509422 16.4905C0.263281 16.2444 0.125 15.9105 0.125 15.5624V7.33482C0.125 6.94982 0.29475 6.58319 0.58875 6.33382L7.15125 0.766195ZM8 1.76719L1.4375 7.33482V15.5624H5.8125V10.0937C5.8125 9.91965 5.88164 9.75273 6.00471 9.62966C6.12778 9.50659 6.2947 9.43744 6.46875 9.43744H9.53125C9.7053 9.43744 9.87222 9.50659 9.99529 9.62966C10.1184 9.75273 10.1875 9.91965 10.1875 10.0937V15.5624H14.5625V7.33482L8 1.76719Z"/>
</svg>