<svg width="85" height="17" viewBox="0 0 85 17" fill="none" xmlns="http://www.w3.org/2000/svg">
<path d="M48.6505 13.4799H49.4309V14.8599H50.8684V13.4799H51.6488V16.9399H50.8684V15.5399H49.4309V16.9399H48.6505V13.4799ZM53.4971 15.2199C53.4971 14.2199 54.298 13.4199 55.3864 13.4199C56.4749 13.4199 57.2758 14.2199 57.2758 15.1999C57.2758 16.1799 56.4749 16.9999 55.3864 16.9999C54.298 16.9999 53.4971 16.1999 53.4971 15.2199ZM56.4543 15.2199C56.4543 14.6199 56.0025 14.1199 55.3864 14.1199C54.7498 14.1199 54.3185 14.5999 54.3185 15.1999C54.3185 15.7999 54.7704 16.2799 55.3864 16.2799C56.0025 16.2799 56.4543 15.8199 56.4543 15.2199ZM59.1035 13.4799H59.8839V16.2599H61.65V16.9599H59.1035V13.4799ZM63.3751 13.4799H64.7716C65.8805 13.4799 66.6609 14.2199 66.6609 15.1999C66.6609 16.1799 65.8805 16.9399 64.7716 16.9399H63.3751V13.4799ZM64.7716 16.2599C65.4082 16.2599 65.8394 15.8399 65.8394 15.2199C65.8394 14.5999 65.4082 14.1799 64.7716 14.1799H64.176V16.2799H64.7716V16.2599ZM68.5297 13.4799H69.3101V16.9399H68.5297V13.4799ZM71.3226 13.4799H72.0414L73.7049 15.6199V13.4799H74.4853V16.9399H73.8281L72.103 14.7399V16.9399H71.3226V13.4799ZM76.313 15.2199C76.313 14.2199 77.0934 13.4199 78.1818 13.4199C78.8184 13.4199 79.2086 13.5799 79.5783 13.8999L79.0854 14.4799C78.8184 14.2599 78.572 14.1199 78.1613 14.1199C77.5862 14.1199 77.1344 14.6199 77.1344 15.1999C77.1344 15.8399 77.5862 16.2999 78.2023 16.2999C78.4898 16.2999 78.7363 16.2399 78.9416 16.0999V15.5999H78.1613V14.9399H79.7015V16.4399C79.3318 16.7399 78.839 16.9999 78.1818 16.9999C77.0728 16.9999 76.313 16.2399 76.313 15.2199Z" fill="#222C49"/>
<path d="M28.6482 0.1H26.5535L22.0971 10.3H24.4177L25.3624 8.04H29.7777L30.7224 10.3H33.1046L28.6482 0.1ZM26.1839 6.08L27.5598 2.78L28.9563 6.08H26.1839ZM40.7031 0.1H38.6084L34.152 10.3H36.4726L37.4173 8.04H41.812L42.7567 10.3H45.1389L40.7031 0.1ZM38.2387 6.08L39.6146 2.78L41.0111 6.08H38.2387ZM63.8886 0C60.6849 0 58.3438 2.36 58.3438 5.24V5.28C58.3438 8.16 60.6439 10.5 63.8475 10.5C67.0512 10.5 69.3924 8.14 69.3924 5.24V5.22C69.3924 2.32 67.0923 0 63.8886 0ZM67.0101 5.28C67.0101 7.02 65.7369 8.44 63.8886 8.44C62.0403 8.44 60.7466 7 60.7466 5.26V5.24C60.7466 3.5 62.0198 2.08 63.8681 2.08C65.6958 2.08 67.0101 3.52 67.0101 5.26V5.28ZM78.4489 5C79.1882 4.6 79.8043 3.96 79.8043 2.82V2.8C79.8043 2.1 79.5784 1.54 79.0855 1.08C78.49 0.5 77.5658 0.18 76.3747 0.18H71.5487V10.3H76.4979C78.8596 10.3 80.3999 9.38 80.3999 7.52V7.48C80.3999 6.14 79.6605 5.46 78.4489 5ZM73.7871 2.14H76.0461C77.0114 2.14 77.5453 2.52 77.5453 3.18V3.2C77.5453 3.96 76.9087 4.28 75.9024 4.28H73.8077V2.14H73.7871ZM78.1203 7.26C78.1203 8 77.5042 8.36 76.4979 8.36H73.7871V6.14H76.4158C77.5864 6.14 78.1203 6.56 78.1203 7.24V7.26ZM80.6463 0V0.42H81.2829V2.08H81.7758V0.42H82.4124V0H80.6463ZM84.4866 0L83.9321 0.88L83.3776 0H82.8642V2.08H83.316V0.68L83.9116 1.58H83.9526L84.5482 0.68V2.08H85V0H84.4866ZM51.0739 0C47.8703 0 45.5291 2.36 45.5291 5.24V5.28C45.5291 8.16 47.8292 10.5 51.0329 10.5C51.6489 10.5 52.224 10.42 52.7785 10.24L51.1355 8.42H51.0534C49.2051 8.42 47.9113 6.98 47.9113 5.24V5.22C47.9113 3.48 49.1846 2.06 51.0329 2.06C52.8606 2.06 54.1749 3.5 54.1749 5.24V5.28C54.1749 5.48 54.1544 5.7 54.1133 5.88L55.8794 7.84C56.3312 7.06 56.5777 6.18 56.5777 5.24V5.22C56.5777 2.32 54.2776 0 51.0739 0ZM18.8318 0.18V6.7C18.8318 7.88 18.2774 8.38 17.4354 8.38C16.6961 8.38 15.6487 8.38 15.6487 8.38V10.44C15.6487 10.44 15.8746 10.44 17.497 10.44C18.6265 10.44 19.5506 10.12 20.1872 9.5C20.8033 8.9 21.173 8 21.173 6.8V0.18H18.8318ZM0 0.18V2.2H13.6156V0.18H0ZM2.32061 4.28V6.28H11.295V4.28H2.32061ZM8.15294 8.38V10.38H12.5272V8.38H8.15294Z" fill="#222C49"/>
</svg>
