<svg width="21" height="21" viewBox="0 0 21 21" fill="none" xmlns="http://www.w3.org/2000/svg">
<path d="M19.8333 0H1.16667C0.857247 0 0.560501 0.122916 0.341709 0.341709C0.122916 0.560501 0 0.857247 0 1.16667V19.8333C0 20.1428 0.122916 20.4395 0.341709 20.6583C0.560501 20.8771 0.857247 21 1.16667 21H19.8333C20.1428 21 20.4395 20.8771 20.6583 20.6583C20.8771 20.4395 21 20.1428 21 19.8333V1.16667C21 0.857247 20.8771 0.560501 20.6583 0.341709C20.4395 0.122916 20.1428 0 19.8333 0ZM6.22883 17.8932H3.1115V7.8715H6.22883V17.8932ZM4.67017 6.503C4.19119 6.503 3.73182 6.31273 3.39313 5.97404C3.05444 5.63534 2.86417 5.17598 2.86417 4.697C2.86417 4.21802 3.05444 3.75866 3.39313 3.41997C3.73182 3.08127 4.19119 2.891 4.67017 2.891C5.14915 2.891 5.60851 3.08127 5.9472 3.41997C6.28589 3.75866 6.47617 4.21802 6.47617 4.697C6.47617 5.17598 6.28589 5.63534 5.9472 5.97404C5.60851 6.31273 5.14915 6.503 4.67017 6.503ZM17.8943 17.8932H14.7805V13.02C14.7805 11.858 14.7595 10.3635 13.1612 10.3635C11.5395 10.3635 11.2933 11.6305 11.2933 12.9383V17.8943H8.18183V7.87267H11.1685V9.24233H11.2117C11.6258 8.45483 12.6432 7.62417 14.1563 7.62417C17.311 7.62417 17.8932 9.6985 17.8932 12.3982V17.8932H17.8943Z" fill="#001C54"/>
</svg>