<svg width="17" height="21" viewBox="0 0 17 21" fill="none" xmlns="http://www.w3.org/2000/svg">
<path d="M8.50001 20.5625L2.43663 13.4117C2.35238 13.3043 2.269 13.1962 2.18651 13.0875C1.15078 11.7232 0.591248 10.0567 0.593758 8.34375C0.593758 6.24688 1.42674 4.2359 2.90945 2.75319C4.39216 1.27048 6.40314 0.4375 8.50001 0.4375C10.5969 0.4375 12.6079 1.27048 14.0906 2.75319C15.5733 4.2359 16.4063 6.24688 16.4063 8.34375C16.4088 10.0559 15.8495 11.7216 14.8142 13.0853L14.8135 13.0875C14.8135 13.0875 14.5979 13.3707 14.5655 13.4088L8.50001 20.5625ZM3.33363 12.2214C3.33507 12.2214 3.50182 12.4428 3.53992 12.4902L8.50001 18.3401L13.4666 12.4823C13.4982 12.4428 13.6664 12.22 13.6671 12.2192C14.5132 11.1046 14.9704 9.74318 14.9688 8.34375C14.9688 6.62813 14.2872 4.98278 13.0741 3.76965C11.861 2.55653 10.2156 1.875 8.50001 1.875C6.78439 1.875 5.13904 2.55653 3.92591 3.76965C2.71279 4.98278 2.03126 6.62813 2.03126 8.34375C2.02975 9.74405 2.4875 11.1062 3.33435 12.2214H3.33363Z" fill="#F37920"/>
</svg>