<svg width="507" height="543" viewBox="0 0 507 543" fill="none" xmlns="http://www.w3.org/2000/svg">
<path d="M308.037 430.369C308.037 430.369 283.618 441.416 253.5 441.416C223.382 441.416 198.963 430.369 198.963 430.369C198.963 430.369 223.382 419.322 253.5 419.322C283.618 419.322 308.037 430.369 308.037 430.369Z" fill="#DEDEDE"/>
<path d="M253.5 441.299C223.382 441.299 198.963 430.252 198.963 430.252L253.5 542.583L308.037 430.252C308.037 430.369 283.618 441.299 253.5 441.299Z" fill="#F2F2F2"/>
<path d="M253.5 311.177C186.753 311.177 132.681 293.618 132.681 293.618L187.218 405.949C187.218 405.949 216.87 422.694 253.5 422.694C290.13 422.694 319.782 405.949 319.782 405.949L374.32 293.618C374.32 293.734 320.247 311.177 253.5 311.177Z" fill="#F2F2F2"/>
<path d="M374.32 293.734C374.32 293.734 320.247 311.293 253.5 311.293C186.753 311.293 132.681 293.734 132.681 293.734C132.681 293.734 186.753 276.175 253.5 276.175C320.247 276.175 374.32 293.734 374.32 293.734Z" fill="#F2F2F2"/>
<path d="M374.32 293.734C374.32 293.734 320.247 311.293 253.5 311.293C186.753 311.293 132.681 293.734 132.681 293.734C132.681 293.734 186.753 276.175 253.5 276.175C320.247 276.175 374.32 293.734 374.32 293.734Z" fill="#DEDEDE"/>
<path d="M440.718 157.1C440.718 157.1 356.877 172.566 253.5 172.566C150.123 172.566 66.2821 157.1 66.2821 157.1C66.2821 157.1 150.123 141.634 253.5 141.634C356.877 141.634 440.718 157.1 440.718 157.1Z" fill="#F2F2F2"/>
<path d="M440.718 157.1C440.718 157.1 356.877 172.566 253.5 172.566C150.123 172.566 66.2821 157.1 66.2821 157.1C66.2821 157.1 150.123 141.634 253.5 141.634C356.877 141.634 440.718 157.1 440.718 157.1Z" fill="#DEDEDE"/>
<path d="M253.5 172.566C150.123 172.566 66.2821 157.1 66.2821 157.1L120.819 269.431C120.819 269.431 180.241 286.641 253.5 286.641C326.759 286.641 386.181 269.431 386.181 269.431L440.718 157.1C440.718 157.1 356.877 172.566 253.5 172.566Z" fill="#F2F2F2"/>
<path d="M507 20.3498C507 20.3498 393.506 40.6995 253.5 40.6995C113.494 40.6995 0 20.3498 0 20.3498C0 20.3498 113.494 0 253.5 0C393.506 0 507 20.3498 507 20.3498Z" fill="#DBB300"/>
<path d="M253.5 40.8158C113.494 40.8158 0 20.3498 0 20.3498L54.5374 132.681C54.5374 132.681 143.611 153.03 253.5 153.03C363.389 153.03 452.463 132.681 452.463 132.681L507 20.3498C507 20.3498 393.506 40.8158 253.5 40.8158Z" fill="#FFD100"/>
<g opacity="0.56">
<path opacity="0.56" d="M139.425 146.286C115.122 143.495 94.7717 140.239 80.1199 137.681L31.9781 25.35C50.4674 27.9082 76.1662 31.1642 107.098 33.955L139.425 146.286Z" fill="#FAFAFA"/>
<path opacity="0.56" d="M178.148 280.943C161.868 278.617 148.146 275.826 138.262 273.617L89.8877 160.705C103.609 162.682 122.564 165.124 145.355 167.217L178.148 280.943Z" fill="#FAFAFA"/>
<path opacity="0.56" d="M217.568 417.694C209.195 415.484 202.218 412.81 196.986 410.6L148.844 298.153C157.914 300.363 170.356 303.153 185.241 305.595L217.568 417.694Z" fill="#FAFAFA"/>
<path opacity="0.56" d="M253.5 542.699L206.637 433.276C210.823 434.671 216.521 436.415 223.382 437.927L253.5 542.699Z" fill="#FAFAFA"/>
</g>
<g opacity="0.43">
<path opacity="0.43" d="M283.036 438.043C298.037 434.787 308.037 430.369 308.037 430.369L253.5 542.699L283.036 438.043Z" fill="#424242"/>
<path opacity="0.43" d="M374.32 293.734L319.782 406.065C319.782 406.065 307.34 413.042 288.618 418.042L320.247 305.828C352.342 300.711 373.622 293.967 374.32 293.734Z" fill="#424242"/>
<path opacity="0.43" d="M440.718 156.984L386.18 269.315C385.483 269.547 362.342 276.175 327.341 281.059L359.435 167.449C408.507 163.031 440.718 156.984 440.718 156.984Z" fill="#424242"/>
<path opacity="0.43" d="M507 20.3498L452.463 132.68C452.463 132.68 417.926 140.588 365.249 146.518L396.995 34.0713C463.51 28.2571 507 20.3498 507 20.3498Z" fill="#424242"/>
</g>
</svg>
