<svg xmlns="http://www.w3.org/2000/svg" xmlns:xlink="http://www.w3.org/1999/xlink" viewBox="0 0 154.15 211.48"><defs><style>.a{fill:none;}.b{fill:#071a54;}.c{fill:#519bd2;}.d{clip-path:url(#a);}.e{fill:#d21518;}.f{fill:#f28e00;}.g{fill:#ffd506;}.h{fill:#c5352d;}.i{fill:#326193;}.j{fill:#f8e44d;}.k{fill:#c6d152;}.l{fill:#7bc8d8;}.m{fill:#c4e3f5;}</style><clipPath id="a" transform="translate(-342.13 -191.16)"><path class="a" d="M495.84,348.83V245.77L476.5,214.46l-33.07-16.18h-44l-33.42,15.83-19.7,31.66L346,348.65l20.05,31.13,33.06,18.66h43.62l34.12-18,19-31.65ZM457.15,338.1l-8.79,15.3-12.67,6.68H406.85l-13-6.15L385,337.57l-.35-80.2,9.5-15.47,12.31-6.34h28.14L448,241.37l9.14,16V338.1Z"/></clipPath></defs><title>0</title><polygon class="b" points="51.57 152.05 65.86 169.28 54.34 171.04 40.1 160.49 51.57 152.05 51.57 152.05"/><polygon class="b" points="92.49 44.41 67.53 50.03 57.16 55.84 51.35 67.27 51.71 153.8 49.07 168 23.74 128.82 23.13 40.89 65.86 22.95 92.49 44.41 92.49 44.41"/><path class="c" d="M495.84,348.83V245.77L476.5,214.46l-33.07-16.18h-44l-33.42,15.83-19.7,31.66L346,348.65l20.05,31.13,33.06,18.66h43.62l34.12-18,19-31.65ZM457.15,338.1l-8.79,15.3-12.67,6.68H406.85l-13-6.15L385,337.57l-.35-80.2,9.5-15.47,12.31-6.34h28.14L448,241.37l9.14,16V338.1Z" transform="translate(-342.13 -191.16)"/><g class="d"><polygon class="e" points="85.21 0 92.84 46.55 135.63 21.54 85.21 0 85.21 0"/><polygon class="f" points="115.12 66.39 115.97 64.81 136.47 20.31 92.42 44.41 115.12 66.39 115.12 66.39"/><polygon class="g" points="153.97 54.26 124.72 89.78 134.96 19.19 153.97 54.26 153.97 54.26"/><path class="h" d="M466.85,280.94" transform="translate(-342.13 -191.16)"/><polygon class="e" points="124.72 89.78 153.71 158.9 154.15 53.9 124.72 89.78 124.72 89.78"/><polygon class="i" points="115.02 146.85 153.71 157.67 124.72 89.78 115.02 146.85 115.02 146.85"/><polygon class="j" points="104.67 159.78 100.45 207.28 137.38 190.38 104.67 159.78 104.67 159.78"/><polygon class="k" points="64.22 167.52 100.45 207.28 106.58 161.55 93.77 167.52 64.22 167.52 64.22 167.52"/><polygon class="g" points="23.07 22.42 64.63 44.67 52.06 50.74 42.56 66.48 23.07 22.42 23.07 22.42"/><polygon class="k" points="11.34 72.02 42.85 147.66 42.56 66.39 11.34 72.02 11.34 72.02"/><path class="e" d="M365.2,379.07c1.41-.52,19.84-41.68,19.84-41.68l.36,1.06,13.63,60L365.2,379.07Z" transform="translate(-342.13 -191.16)"/><polygon class="l" points="42.91 146.24 52.61 161.89 64.22 167.52 100.45 207.28 57.86 211.48 42.91 146.24 42.91 146.24"/><polygon class="m" points="3.87 140.61 32.18 121.44 3.72 53.85 3.87 140.61 3.87 140.61"/><polygon class="i" points="22.34 98.05 42.74 146.94 23.74 187.98 0 158.37 3.87 138.15 22.34 98.05 22.34 98.05"/></g><polygon class="b" points="3.87 138.15 23.74 187.98 3.87 157.67 3.87 138.15 3.87 138.15"/><polygon class="l" points="57.16 7.12 86.35 7.12 92.49 44.41 57.16 7.12 57.16 7.12"/><polygon class="l" points="106.58 161.63 134.72 189.15 153.71 157.67 115.02 146.85 106.58 161.63 106.58 161.63"/><polygon class="l" points="134.31 23.32 115.02 66.43 124.67 89.85 134.31 23.32 134.31 23.32"/><polygon class="f" points="4.22 54.7 23.92 22.95 42.56 66.39 4.22 54.7 4.22 54.7"/><polygon class="g" points="42.91 146.24 51.71 162.68 65.86 168.92 57.07 207.28 42.91 146.24 42.91 146.24"/></svg>