<svg xmlns="http://www.w3.org/2000/svg" viewBox="0 0 116.36 196.28"><defs><style>.a{fill:#71c8dd;}.b{fill:#ffd100;}.c{fill:#d40f14;}.d{fill:#f7aa00;}.e{fill:#c6d152;}.f{fill:#326193;}.g{fill:#519bd2;}.h{fill:#f28e00;}.i{fill:#fff;}.j{fill:#0e2050;}</style></defs><title>1</title><polygon class="a" points="62 39 57.72 52.65 92 118.6 87 39 62 39 62 39"/><polygon class="b" points="87 39 110 112.25 110 21.13 87 39 87 39"/><polygon class="c" points="62 130 62 61 92 118.6 62 130 62 130"/><polyline class="d" points="92 118.6 110 112.25 87 39 91.81 115.6"/><polygon class="e" points="110 112.25 86 157 62 130 92 118.6 110 112.25 110 112.25"/><polyline class="b" points="110 196.28 110 112.25 62 196.28 107 196.28"/><polygon class="f" points="73 176 110 176 110 196.28 62 196.28 73 176 73 176"/><polygon class="g" points="0 53 17 75.63 110 0 62 0 0 53 0 53"/><polygon class="h" points="87 39 62 39 110 0 110 21.13 87 39 87 39"/><polygon class="f" points="17 75.63 29 89 62 60.25 62 39 17 75.63 17 75.63"/><polygon class="f" points="62 39 55 45 62 61 62 39 62 39"/><path class="i" d="M424,239.28" transform="translate(-362 -200.28)"/><polyline class="a" points="62 39 15 40 62 0 62 36"/><polyline class="e" points="62 0 110 0 62 39 62 3"/><polygon class="j" points="62 39 62 60.25 29 89 62 39 62 39"/><polygon class="a" points="92 118.65 110 139.5 110 112.25 92 118.65 92 118.65"/><polygon class="j" points="110 0 116.36 6.9 116.36 192.9 110 196.28 110 0 110 0"/><polygon class="g" points="62 130 85 155.97 62 196.28 62 130 62 130"/></svg>