<svg xmlns="http://www.w3.org/2000/svg" viewBox="0 0 140.16 196.94"><defs><style>.a{fill:#71c8dd;}.b{fill:#d40f14;}.c{fill:#f28e00;}.d{fill:#ffd506;}.e{fill:#f7aa00;}.f{fill:#f4b700;}.g{fill:#ee7203;}.h{fill:#0e2050;}.i{fill:#c6d152;}.j{fill:#326193;}.k{fill:#519bd2;}</style></defs><title>2</title><polygon class="a" points="2 65.94 52 68.94 29 41.94 2 65.94 2 65.94"/><polygon class="b" points="29 41.94 29 9.47 9 29.44 2 65.94 29 41.94 29 41.94"/><polygon class="b" points="88.5 151.66 88.5 175.81 140.16 175.81 140 151.66 88.5 151.66 88.5 151.66"/><polygon class="b" points="52 0 52 0 85 0 125 18.94 52 0 52 0"/><polygon class="c" points="124.91 19.01 124.91 19.01 67.22 43.94 83.91 53.51 84.91 70.01 124.91 19.01 124.91 19.01"/><polygon class="d" points="72.25 151.66 0.32 151.66 0 196.94 72.25 151.66 72.25 151.66"/><polygon class="e" points="88.5 151.66 72.25 151.66 0 196.94 88.5 175.81 88.5 151.66 88.5 151.66"/><polyline class="f" points="140.16 175.81 113.87 196.94 88.5 175.81 137 175.81"/><polygon class="g" points="113.87 196.94 0 196.94 88.5 175.81 113.87 196.94 113.87 196.94"/><polygon class="g" points="113.87 196.94 140 196.94 140.16 175.81 113.87 196.94 113.87 196.94"/><polygon class="f" points="85 0 29 41.94 125 18.94 85 0 85 0"/><polygon class="h" points="137 42.94 114.97 109.94 137.16 78.42 137 42.94 137 42.94"/><polygon class="i" points="62.82 119.34 72.25 151.66 27 126 62.82 119.34 62.82 119.34"/><polygon class="c" points="72.25 151.66 114.97 109.94 49.63 104.92 72.25 151.66 72.25 151.66"/><polygon class="h" points="114.97 109.94 72.25 151.66 89 151.66 114.97 109.94 114.97 109.94"/><polygon class="d" points="29 41.94 84.82 0 52 0 29 9.47 29 41.94 29 41.94"/><polygon class="f" points="52 68.94 29 41.94 125 18.94 56.91 48.96 52 68.94 52 68.94"/><polygon class="a" points="85 69.94 114.97 109.94 130.16 66.01 125 18.94 85 69.94 85 69.94"/><polygon class="f" points="85 69.94 49.63 104.92 114.97 109.94 85 69.94 85 69.94"/><polygon class="a" points="0.32 151.66 72.25 151.66 49.63 104.92 0.32 151.66 0.32 151.66"/><polygon class="j" points="137 78.44 106.16 27.01 125 18.94 137.16 42.42 137 78.44 137 78.44"/><polygon class="j" points="84.82 69.94 61.16 128.29 49.63 104.92 84.82 69.94 84.82 69.94"/><polyline class="k" points="0.32 151.66 61.16 128.29 49.63 104.92 2.18 149.61"/><polygon class="h" points="56.91 48.69 46.16 62.01 52 68.94 56.91 48.69 56.91 48.69"/><polygon class="k" points="88.5 175.81 121.52 175.81 121.52 162.94 93.41 162.94 88.5 162.94 88.5 175.81 88.5 175.81"/></svg>