<svg xmlns="http://www.w3.org/2000/svg" viewBox="0 0 149 201.88"><defs><style>.a{fill:#71c8dd;}.b{fill:#f4b700;}.c{fill:#0e2050;}.d{fill:#326193;}.e{fill:#c6d152;}.f{fill:#ee7203;}.g{fill:#d40f14;}.h{fill:#ffd100;}.i{fill:#f28e00;}.j{fill:#f39200;}</style></defs><title>3</title><polygon class="a" points="23 18.88 5.72 46.88 48 56.88 52 43.88 23 18.88 23 18.88"/><polygon class="b" points="99 18.88 23 18.88 52 43.88 99 18.88 99 18.88"/><polygon class="c" points="48 56.88 52 43.88 67 35.88 48 56.88 48 56.88"/><path class="d" d="M445,216.16v33c0-1-11.28-14-11.28-14l-20.72-2,32-17Z" transform="translate(-346 -197.28)"/><polygon class="a" points="99 0 99 18.88 23 18.88 99 0 99 0"/><polygon class="e" points="62 0 23 18.88 99 0 62 0 62 0"/><polyline class="f" points="99 0 129 15.05 147 50.05 99 50.05 99 3"/><polygon class="g" points="99 18.88 99 50.05 127 50.05 127 18.88 99 18.88 99 18.88"/><polygon class="a" points="94.72 72.88 99 50.05 147 50.05 94.72 72.88 94.72 72.88"/><polygon class="h" points="137 79.88 147 50.05 78 79.88 137 79.88 137 79.88"/><polygon class="c" points="148 71.88 147 50.05 137 79.88 148 71.88 148 71.88"/><polygon class="d" points="112.5 79.88 112.5 96.88 137 79.88 112.5 79.88 112.5 79.88"/><polygon class="i" points="52 79.88 52 114.88 112.5 114.88 112.5 79.88 52 79.88 52 79.88"/><polygon class="a" points="78 96.88 78 114.88 113 114.88 112.5 96.88 78 96.88 78 96.88"/><polygon class="e" points="144 115.88 113 114.88 112.5 96.88 144 115.88 144 115.88"/><polygon class="h" points="78 114.88 104 133.88 142 114.88 78 114.88 78 114.88"/><polygon class="j" points="142 171.88 104 133.88 142 114.88 144 139.88 142 171.88 142 171.88"/><polygon class="g" points="127 186.88 142 171.88 104 133.88 104 198.88 127 186.88 127 186.88"/><polygon class="i" points="88.5 161.93 104 147.93 104 198.88 73 201.88 88.5 161.93 88.5 161.93"/><polygon class="e" points="88.5 161.88 62 161.88 42 139.88 41.94 196.88 73 201.88 88.5 161.88 88.5 161.88"/><polygon class="b" points="0 150.88 41.94 139.88 41.94 196.88 0 150.88 0 150.88"/><polygon class="f" points="15 180.88 41.94 196.88 0 150.88 15 180.88 15 180.88"/><polygon class="c" points="112.5 96.88 148 115.88 149 169.88 127 186.88 142 171.88 142 114.88 112.5 96.88 112.5 96.88"/><polygon class="c" points="104 133.88 88.5 161.93 104 148.24 104 133.88 104 133.88"/><polygon class="c" points="87.72 37.88 94.72 72.88 99 50.05 87.72 37.88 87.72 37.88"/></svg>