<svg xmlns="http://www.w3.org/2000/svg" viewBox="0 0 154.13 196"><defs><style>.a{fill:#0e2050;}.b{fill:#71c8dd;}.c{fill:#ffd506;}.d{fill:#d40f14;}.e{fill:#f28e00;}.f{fill:#326193;}.g{fill:#c6d152;}.h{fill:#519bd2;}.i{fill:#ffd100;}.j{fill:#ee7203;}.k{fill:#f4b700;}.l{fill:#f39200;}</style></defs><title>4</title><polygon class="a" points="129.72 157 129.72 196 135 192 135 157 129.72 157 129.72 157"/><path class="a" d="M424,277.28l-20,39H393c.73,0,31-42,31-42v3Z" transform="translate(-343 -200.28)"/><polygon class="a" points="129.72 0 135 9.05 135 114.72 126 114.72 129.72 0 129.72 0"/><polygon class="b" points="129.72 159.72 154.13 159.72 154.13 136.85 129.85 136.75 129.72 159.72 129.72 159.72"/><polyline class="c" points="100 159.72 100 196 130 159.72 103 159.72"/><polygon class="d" points="129.82 196 129.82 159.72 100 196 129.82 196 129.82 196"/><polygon class="d" points="81 0 129.72 0 115 51 81 0 81 0"/><polygon class="e" points="81 51 81 0 115 51 81 51 81 51"/><polyline class="f" points="129.72 76 115 51 129.72 0 129.72 73"/><polyline class="g" points="81 51 45.73 51 81 0 81 48"/><polygon class="b" points="45.73 136.75 129.82 136.75 129.82 114.72 45.73 114.72 45.73 136.75 45.73 136.75"/><polygon class="h" points="72 89 45.73 51 81 51 98 51 72 89 72 89"/><polygon class="i" points="0 119 45.73 137 45.73 51 0 119 0 119"/><polygon class="j" points="0 159.72 0 119.06 45.73 137 0 159.72 0 159.72"/><polygon class="d" points="81 159.72 46 136.75 0 159.72 81 159.72 81 159.72"/><polygon class="k" points="129.82 136.75 45.73 136.75 80.87 159.72 99.8 159.72 129.82 136.75 129.82 136.75"/><polyline class="l" points="45.73 114.72 55 114.72 72 89 45.73 51 45.73 111.72"/><polygon class="g" points="45.73 136.75 81 114.72 45.73 114.72 45.73 136.75 45.73 136.75"/><polyline class="f" points="81 159.72 100 196 100 159.72 84 159.72"/><polyline class="h" points="81 196 81 159.72 100 196 84 196"/><path class="d" d="M441,251.28" transform="translate(-343 -200.28)"/><polygon class="d" points="115 51 98 51 129.72 76 115 51 115 51"/><polygon class="c" points="81 76 129.72 76 98 51 81 76 81 76"/><polyline class="f" points="81 114.72 129.72 76 129.72 114.72 84 114.72"/><polygon class="b" points="81 76 81 114.72 129.72 76 81 76 81 76"/><polygon class="g" points="129.72 159.72 129.82 136.75 99.72 159.72 129.72 159.72 129.72 159.72"/><polyline class="g" points="154.13 136.75 154.13 114.72 129.82 136.75 151.13 136.81"/><polygon class="f" points="129.82 114.72 154.13 114.72 129.72 136.75 129.82 114.72 129.82 114.72"/></svg>