<svg xmlns="http://www.w3.org/2000/svg" xmlns:xlink="http://www.w3.org/1999/xlink" viewBox="0 0 140.64 199"><defs><style>.a{fill:none;}.b{fill:#0e2050;}.c{fill:#326193;}.d{fill:#c6d152;}.e{fill:#71c8dd;}.f{fill:#f28e00;}.g{fill:#f4b700;}.h{fill:#d40f14;}.i{fill:#ffd100;}.j{clip-path:url(#a);}.k{fill:#f7aa00;}.l{fill:#389cd7;}.m{fill:#519bd2;}.n{fill:#ffd506;}.o{fill:#ffed00;}</style><clipPath id="a" transform="translate(-350 -198.28)"><polyline class="a" points="425.36 243.34 479.36 243.34 425.36 198.28 425.36 240.34"/></clipPath></defs><title>5</title><polygon class="b" points="53 42.85 53 63.85 65 63.85 65 42.85 53 42.85 53 42.85"/><polygon class="b" points="66.36 154.85 88.47 131.6 87.83 119.06 102.36 130.85 78.39 161.36 66.36 154.85 66.36 154.85"/><polygon class="c" points="101.09 131.6 87.36 144 70.94 150.72 106 171.8 101.09 131.6 101.09 131.6"/><polygon class="d" points="42.36 33 54.36 62.09 54.36 45 42.36 33 42.36 33"/><polyline class="d" points="75.36 0 42.36 16.5 42.36 0 72.36 0"/><polygon class="e" points="75.36 0 75.36 45.05 54.36 45.05 42.36 33 75.36 0 75.36 0"/><polygon class="f" points="7.36 35 7.36 62.09 54.36 62.09 42.36 33 7.36 33 7.36 35 7.36 35"/><polygon class="e" points="129.36 45.05 129.36 0 75.36 0 129.36 45.05 129.36 45.05"/><polyline class="g" points="7.36 62.09 7.36 95.36 54.36 62.09 10.36 62.09"/><polygon class="c" points="0 131.6 7.36 167 44.36 156.6 36.15 133.85 0 131.6 0 131.6"/><polygon class="g" points="28.09 104 7.36 95 54.36 62.09 28.09 104 28.09 104"/><polygon class="h" points="71.96 104 28.09 104 54.36 62.09 102.36 111 71.96 104 71.96 104"/><polygon class="e" points="101.09 69 101.09 110 54.36 62.09 83.83 65.6 101.09 69 101.09 69"/><polygon class="f" points="70.94 150.72 118 178.85 101.09 190 83.83 191.85 44.36 151.97 70.94 150.72 70.94 150.72"/><polygon class="i" points="101.09 110 135.68 145.6 101 168.85 101.09 110 101.09 110"/><polygon class="e" points="7.36 62.09 28.09 104 7.36 104 7.36 62.09 7.36 62.09"/><polyline class="i" points="75.36 45.05 129.36 45.05 75.36 0 75.36 42.05"/><g class="j"><polygon class="c" points="73.36 47 102.36 22.53 130.36 46 73.36 47 73.36 47"/></g><polygon class="c" points="54.36 62.09 67 104 101.09 104 54.36 62.09 54.36 62.09"/><polygon class="h" points="101.09 110 135.68 145.6 140.64 124.6 140.64 110 101.09 110 101.09 110"/><polygon class="k" points="101 168.85 135.68 145.6 125.36 173.06 118 178.85 101 168.85 101 168.85"/><polygon class="l" points="7.36 167 36.15 190 7.36 167 7.36 167"/><polygon class="m" points="67 104 101 131.6 101.3 104 67 104 67 104"/><polygon class="h" points="7.36 0 7.36 62.09 42.36 33 42.36 15.85 7.36 0 7.36 0"/><polygon class="n" points="7.36 0 42.36 16.5 42.36 0 7.36 0 7.36 0"/><polygon class="c" points="42.36 16.5 42.36 33 75.36 0 42.36 16.5 42.36 16.5"/><polygon class="d" points="140.64 110 101.09 110 101.09 69 122.36 80 140.64 110 140.64 110"/><polygon class="o" points="101.09 92.11 101 131.6 122 131.6 122 97.98 122 92.11 101.09 92.11 101.09 92.11"/><polygon class="e" points="36.15 134.13 36.15 190 70.94 199 36.15 134.13 36.15 134.13"/><polygon class="n" points="46 151.97 101.3 189.89 70.94 199 46 151.97 46 151.97"/><polygon class="m" points="36.15 134.13 7.36 166.56 36.15 189.89 36.15 134.13 36.15 134.13"/></svg>