<svg xmlns="http://www.w3.org/2000/svg" viewBox="0 0 159 210.94"><defs><style>.a{fill:#f4b700;}.b{fill:#c6d152;}.c{fill:#f28e00;}.d{fill:#71c8dd;}.e{fill:#519bd2;}.f{fill:#ffd100;}.g{fill:#d40f14;}.h{fill:#389cd7;}.i{fill:#ffed00;}.j{fill:#ffd506;}.k{fill:#0e2050;}</style></defs><title>6</title><polygon class="a" points="42 200.94 81.18 210.94 42 121 42 200.94 42 200.94"/><polygon class="a" points="130 0 72 0 72 78 130 0 130 0"/><polygon class="b" points="104 71 76.19 71 72 78 72 106.02 85 104 104 71 104 71"/><polygon class="c" points="104 113.51 85 104 104 71 104 113.51 104 113.51"/><polygon class="d" points="140 88.51 104 71 104 113.51 140 88.51 140 88.51"/><polygon class="e" points="115 136.92 104 113.51 140 88.51 115 136.92 115 136.92"/><polygon class="f" points="138 187.72 115 136.92 140 88.51 154 168.55 138 187.72 138 187.72"/><polygon class="g" points="159 123.63 140 88.51 154 168.55 159 123.63 159 123.63"/><polygon class="a" points="132 196.1 104 160.13 115 136.92 138 187.72 132 196.1 132 196.1"/><polygon class="g" points="81.18 210.94 132 196.1 72.3 168.5 60 162.08 81.18 210.94 81.18 210.94"/><polygon class="h" points="104 160.13 132 196.1 72 168.55 104 160.13 104 160.13"/><polygon class="d" points="14 181.35 42 45.24 42 200 14 181.35 14 181.35"/><polygon class="i" points="42 200.94 42 144.24 29 144.24 29 192.51 29 200.94 42 200.94 42 200.94"/><polygon class="c" points="14 181.35 0 148.85 1 116 8.58 97.25 29.46 111.94 14 181.35 14 181.35"/><polygon class="j" points="42 45.24 8.58 97.25 29.58 111.94 42 45.24 42 45.24"/><polygon class="k" points="54 148.85 72 106.02 54 113.51 48 134.94 54 148.85 54 148.85"/><polyline class="k" points="88 71 130 0 76.19 71 85 71"/><polyline class="g" points="42 121 72 106.02 72 0 42 45.24 42 118"/><polygon class="b" points="42 121 60 111.94 48 134.94 42 121 42 121"/></svg>