<svg xmlns="http://www.w3.org/2000/svg" xmlns:xlink="http://www.w3.org/1999/xlink" viewBox="0 0 145.06 217.26"><defs><style>.a{fill:none;}.b{fill:#0e2050;}.c{fill:#519bd2;}.d{clip-path:url(#a);}.e{fill:#326193;}.f{fill:#ffd506;}.g{fill:#71c8dd;}.h{fill:#f28e00;}.i{fill:#d21518;}.j{fill:#ffd100;}.k{fill:#c6d152;}.l{fill:#071a54;}.m{fill:#f4b700;}.n{fill:#d40f14;}</style><clipPath id="a" transform="translate(-348 -177.1)"><polygon class="a" points="354.79 204.67 354.79 243.69 423.2 243.69 358.47 373.4 348 394.37 393.81 394.37 409.82 363.21 493.06 201.28 354.79 201.28 354.79 204.67 354.79 204.67"/></clipPath></defs><title>7</title><polygon class="b" points="145.06 24.18 139.53 47.77 57.53 208.78 45.78 217.26 145.06 24.18 145.06 24.18"/><path class="b" d="M354.76,243.71l9.19,2.43s61.5,7.81,61.5,6.05,2.83-13.62,2.83-13.62l-73.52,5.14Z" transform="translate(-348 -177.1)"/><polygon class="c" points="6.79 27.57 6.79 66.59 75.2 66.59 10.47 196.29 0 217.26 45.81 217.26 61.82 186.11 145.06 24.18 6.79 24.18 6.79 27.57 6.79 27.57"/><g class="d"><polygon class="e" points="86.84 137.35 63.79 103.15 122.85 75.6 86.84 137.35 86.84 137.35"/><polygon class="f" points="22.25 139.74 62.04 186.74 64.25 103.79 22.25 139.74 22.25 139.74"/><polygon class="g" points="64.25 103.74 62.04 186.79 89.25 133.74 84.13 114.46 64.25 103.74 64.25 103.74"/><polygon class="c" points="45.25 81.74 89.24 133.46 95.42 54.14 45.25 81.74 45.25 81.74"/><polygon class="h" points="50.25 51.74 82.46 11.31 28.51 20.74 50.25 51.74 50.25 51.74"/><polygon class="i" points="74.77 67.1 100.64 24.18 62.04 0 50.25 51.74 74.77 67.1 74.77 67.1"/></g><polygon class="j" points="75.13 66.61 117.38 77.89 54.27 108.41 54.27 108.51 75.13 66.61 75.13 66.61"/><polygon class="k" points="31.02 24.18 50.25 51.74 6.76 51.74 31.02 24.18 31.02 24.18"/><polygon class="j" points="74.77 66.61 117.38 77.89 141.27 30.64 74.77 66.61 74.77 66.61"/><polygon class="g" points="74.77 66.61 100.64 24.18 130.02 53.88 74.77 66.61 74.77 66.61"/><polygon class="h" points="0 217.26 32.52 152.01 62.04 185.74 0 217.26 0 217.26"/><polygon class="c" points="75.25 65.74 45.78 166.88 0 217.26 75.25 65.74 75.25 65.74"/><polygon class="h" points="100.21 24.18 130.02 53.88 145.06 24.18 100.21 24.18 100.21 24.18"/><polygon class="l" points="15.55 186.09 22.25 192.74 0 217.26 15.55 186.09 15.55 186.09"/><polygon class="m" points="6.76 51.74 6.76 66.89 75.25 66.61 50.25 51.74 6.76 51.74 6.76 51.74"/><polygon class="n" points="0 217.26 45.78 217.26 62.04 185.74 0 217.26 0 217.26"/></svg>