<svg xmlns="http://www.w3.org/2000/svg" viewBox="0 0 148.58 210.01"><defs><style>.a{fill:#519bd2;}.b{fill:#0e2050;}.c{fill:#71c8dd;}.d{fill:#ffd100;}.e{fill:#d40f14;}.f{fill:#f4b700;}.g{fill:#f7aa00;}.h{fill:#326193;}.i{fill:#c6d152;}.j{fill:#ee7203;}.k{fill:#ffd506;}</style></defs><title>8</title><polygon class="a" points="138 108 148.58 127.31 148.58 155 138 147 138 108 138 108"/><polygon class="b" points="82.54 127.31 85.64 143.42 80 164 93.38 147.68 88.73 131.04 82.54 127.31 82.54 127.31"/><polygon class="b" points="55.85 132.07 88.73 132.07 74.36 122.56 62.94 126.66 55.85 132.07 55.85 132.07"/><polygon class="c" points="118 95.96 141.35 132.07 88.73 132.07 93.44 105.22 118 95.96 118 95.96"/><polygon class="d" points="65 82 92.86 114.27 100.08 90.85 95.29 69.06 65 82 65 82"/><polygon class="b" points="66.03 49.69 81.51 48.81 95.29 69.06 88.73 44.37 79.45 39.21 66.03 49.69 66.03 49.69"/><polygon class="e" points="77.1 0 28.89 12.28 88.73 44.37 77.1 0 77.1 0"/><polygon class="f" points="77.1 0 122.78 15.48 99.94 90.85 77.1 0 77.1 0"/><polygon class="c" points="28.89 12.28 8.26 36.66 55.85 71.19 55.85 44.88 28.89 12.28 28.89 12.28"/><polygon class="g" points="18.57 94.92 8.26 36.66 3.84 69.13 18.57 94.92 18.57 94.92"/><polygon class="d" points="55.85 71.01 18.57 94.92 8.26 36.66 55.85 71.01 55.85 71.01"/><polygon class="h" points="55.85 58.41 79.45 39.21 55.85 44.88 55.85 58.41 55.85 58.41"/><polygon class="i" points="55.85 71.01 55.85 114.27 18.57 94.92 55.85 71.01 55.85 71.01"/><polygon class="g" points="55.85 71.01 62.93 79.28 92.86 114.27 55.85 132.07 55.85 71.01 55.85 71.01"/><polygon class="j" points="74.36 123.17 88.73 132.07 92.86 114.27 74.36 123.17 74.36 123.17"/><polygon class="k" points="0 143.42 55.85 132.07 55.85 114.27 26.83 99.11 0 143.42 0 143.42"/><polygon class="k" points="8.26 119.74 26.83 99.11 0 143.42 8.26 119.74 8.26 119.74"/><polygon class="i" points="55.85 132.07 50.36 139.78 20.35 193.98 0 162.51 0 143.42 55.85 132.07 55.85 132.07"/><polygon class="g" points="60.88 158.9 49.53 141.35 20.35 193.98 37.21 204.84 60.88 158.9 60.88 158.9"/><polygon class="d" points="77.1 210.01 37.21 204.84 60.88 158.9 77.1 210.01 77.1 210.01"/><polygon class="d" points="107.31 121.27 107.31 204.84 132.07 188.75 132.07 121.26 107.31 121.27 107.31 121.27"/><polygon class="h" points="141.35 132.07 148.58 155 132.07 188.75 132.07 132.07 141.35 132.07 141.35 132.07"/><polygon class="c" points="60.88 158.9 80.48 164.05 107.31 159.9 107.31 204.84 77.1 210.01 60.88 158.9 60.88 158.9"/><polygon class="c" points="118.66 97.24 130.39 104.06 138 108 141.35 132.07 118.66 97.24 118.66 97.24"/><polygon class="j" points="110.78 54.74 125.88 92.64 92.86 114.27 110.78 54.74 110.78 54.74"/><polygon class="e" points="141.35 42.97 122.78 15.48 110.78 54.74 125.88 92.63 141.35 73.26 141.35 42.97 141.35 42.97"/><polygon class="c" points="28.89 12.28 55.85 48.16 79.45 39.21 28.89 12.28 28.89 12.28"/><polygon class="h" points="88.73 132.07 92.86 146.51 80 164 107.31 164 107.31 132.07 88.73 132.07 88.73 132.07"/><polygon class="c" points="8.26 36.66 16 21 28.89 12.28 11.21 36.66 8.26 36.66 8.26 36.66"/></svg>