<svg xmlns="http://www.w3.org/2000/svg" viewBox="0 0 157.37 208.78"><defs><style>.a{fill:#0e2050;}.b{fill:#71c8dd;}.c{fill:#ffd506;}.d{fill:#d40f14;}.e{fill:#c6d152;}.f{fill:#f28e00;}.g{fill:#326193;}.h{fill:#f39200;}.i{fill:#f4b700;}.j{fill:#ffed00;}</style></defs><title>9</title><polygon class="a" points="105.9 61.46 86.11 103.85 103.92 96.43 110.85 72.08 105.9 61.46 105.9 61.46"/><polygon class="b" points="26.72 14.69 78.19 0 97.71 45.97 26.72 14.69 26.72 14.69"/><polygon class="c" points="115.8 9.9 77.92 0 115.8 89.02 115.8 9.9 115.8 9.9"/><polygon class="d" points="28.7 208.78 86.11 208.78 86.11 131.58 28.7 208.78 28.7 208.78"/><polygon class="e" points="54.44 138.51 81.96 138.51 86.11 131.58 86.11 103.85 73.24 105.85 54.44 138.51 54.44 138.51"/><polygon class="f" points="54.44 96.43 73.24 105.85 54.44 138.51 54.44 96.43 54.44 96.43"/><polygon class="g" points="18.8 121.18 54.44 138.51 54.44 96.43 18.8 121.18 18.8 121.18"/><polygon class="h" points="42.56 71.21 54.44 96.43 18.8 121.18 42.56 71.21 42.56 71.21"/><polygon class="d" points="20.79 22.98 43.55 71.21 18.8 121.18 4.95 41.96 20.79 22.98 20.79 22.98"/><polygon class="f" points="0 86.42 18.8 121.18 4.95 41.96 0 86.42 0 86.42"/><polygon class="i" points="26.72 14.69 54.44 50.29 43.08 72.08 20.79 22.98 26.72 14.69 26.72 14.69"/><polygon class="b" points="77.92 0 26.72 14.69 85.81 42.01 97.71 45.97 77.92 0 77.92 0"/><polygon class="g" points="54.44 50.29 26.72 14.69 86.11 41.96 54.44 50.29 54.44 50.29"/><polygon class="e" points="143.51 29.29 115.8 162.26 115.8 10.83 143.51 29.29 143.51 29.29"/><polygon class="j" points="115.8 9.9 115.8 66.02 128.66 66.02 128.66 18.25 128.66 9.9 115.8 9.9 115.8 9.9"/><polygon class="f" points="143.51 29.29 157.37 61.46 156.38 93.97 148.87 112.52 128.66 97.98 143.51 29.29 143.51 29.29"/><polygon class="c" points="111.08 170.18 148.87 112.52 128.66 97.98 111.08 170.18 111.08 170.18"/><polyline class="a" points="70.27 138.51 28.7 208.78 81.96 138.51 73.27 138.51"/><polyline class="b" points="115.8 89.02 86.11 103.85 86.11 208.78 115.8 163 115.8 92.02"/><polygon class="e" points="115.8 89.02 103.92 95 109.86 75 115.8 89.02 115.8 89.02"/></svg>